<svg width="241" height="241" viewBox="0 0 241 241" fill="none" xmlns="http://www.w3.org/2000/svg">
<path opacity="0.5" fill-rule="evenodd" clip-rule="evenodd" d="M193.933 25.206C179.44 13.9694 162.734 6.36729 145.227 2.65456L238.081 96.0945C234.911 80.616 228.62 65.5115 219.039 51.7106C217.935 50.1199 216.799 48.5641 215.633 47.0434L193.933 25.206ZM109.191 0.523659C117.896 -0.27281 126.636 -0.113863 135.251 0.971426L239.688 106.067C240.713 114.74 240.783 123.466 239.929 132.086L109.191 0.523659ZM101.791 1.43325C94.8567 2.50559 87.9737 4.19407 81.2247 6.51356L233.763 160.014C236.098 153.326 237.837 146.45 238.966 139.473L101.791 1.43325ZM58.0788 17.3541C63.6177 14.0007 69.334 11.1456 75.1723 8.77862L231.468 166.06C229.053 171.942 226.165 177.652 222.813 183.128L58.0788 17.3541ZM53.0027 20.6016C52.5629 20.8985 52.1243 21.1988 51.687 21.5023C47.0441 24.7254 42.6983 28.2168 38.6562 31.9413L208.092 202.446C212.306 197.951 216.124 193.181 219.538 188.187L53.0027 20.6016ZM22.6629 49.9794C26.188 45.0858 30.1113 40.4216 34.4236 36.0377L203.96 206.643C199.645 210.816 194.963 214.715 189.924 218.295L22.6629 49.9794ZM19.2811 54.9319C15.8214 60.2821 12.8138 65.8717 10.2693 71.6402L168.213 230.58C173.938 228.084 179.536 225.109 184.952 221.648L19.2811 54.9319ZM2.16593 97.618C3.47558 90.7915 5.37366 84.0768 7.84526 77.5564L162.291 232.976C155.711 235.436 148.99 237.286 142.206 238.541L2.16593 97.618ZM1.00944 104.81L135.002 239.648C126.612 240.677 118.169 240.812 109.816 240.079L0.380484 129.954C-0.289639 121.549 -0.0712756 113.119 1.00944 104.81ZM21.4788 188.854C40.7071 216.554 69.4879 233.676 100.305 238.864L1.52116 139.457C4.28996 156.68 10.8665 173.567 21.4788 188.854Z" fill="url(#paint0_linear_107_128)"/>
<defs>
<linearGradient id="paint0_linear_107_128" x1="51.687" y1="21.5024" x2="188.831" y2="219.063" gradientUnits="userSpaceOnUse">
<stop offset="0.0535037" stop-color="#ED7850"/>
<stop offset="0.496212" stop-color="#488AEA"/>
<stop offset="0.897254" stop-color="#2D2D2D"/>
</linearGradient>
</defs>
</svg>
